<svg xmlns="http://www.w3.org/2000/svg" viewBox="0 0 128 128" fill="none" stroke="#D8B978" stroke-width="2.3" stroke-linecap="round" stroke-linejoin="round" aria-label="Beech"><path d="M64 118 C63 94 64 50 64 32"/><path d="M64.0 100.0C52.6 99.6 42.6 91.2 41.0 80.7C51.6 80.5 61.6 88.9 64.0 100.0Z"/><path d="M64.0 90.0C66.4 78.9 76.4 70.5 87.0 70.7C85.4 81.2 75.4 89.6 64.0 90.0Z"/><path d="M64.0 78.0C52.6 77.6 42.6 69.2 41.0 58.7C51.6 58.5 61.6 66.9 64.0 78.0Z"/><path d="M64.0 68.0C66.4 56.9 76.4 48.5 87.0 48.7C85.4 59.2 75.4 67.6 64.0 68.0Z"/><path d="M64.0 56.0C52.6 55.6 42.6 47.2 41.0 36.7C51.6 36.5 61.6 44.9 64.0 56.0Z"/><path d="M64.0 46.0C66.4 34.9 76.4 26.5 87.0 26.7C85.4 37.2 75.4 45.6 64.0 46.0Z"/><path d="M64.0 32.0C58.0 24.4 58.0 13.3 64.0 6.5C70.0 13.3 70.0 24.4 64.0 32.0Z"/></svg>
