<svg xmlns="http://www.w3.org/2000/svg" viewBox="0 0 128 128" fill="none" stroke="#D8B978" stroke-width="2.3" stroke-linecap="round" stroke-linejoin="round" aria-label="Olive"><path d="M64 118 C63 94 64 52 64 34"/><path d="M64.0 96.0C52.5 94.0 39.5 86.5 34.6 79.0C43.5 79.5 56.5 87.0 64.0 96.0Z"/><path d="M64.0 84.0C71.5 75.0 84.5 67.5 93.4 67.0C88.5 74.5 75.5 82.0 64.0 84.0Z"/><path d="M64.0 72.0C52.5 70.0 39.5 62.5 34.6 55.0C43.5 55.5 56.5 63.0 64.0 72.0Z"/><path d="M64.0 58.0C71.5 49.0 84.5 41.5 93.4 41.0C88.5 48.5 75.5 56.0 64.0 58.0Z"/><path d="M64.0 46.0C52.5 44.0 39.5 36.5 34.6 29.0C43.5 29.5 56.5 37.0 64.0 46.0Z"/><g fill="#D8B978" stroke="none"><circle cx="55" cy="100" r="4"/><circle cx="72" cy="90" r="4"/></g></svg>
