<svg xmlns="http://www.w3.org/2000/svg" viewBox="0 0 128 128" fill="none" stroke="#D8B978" stroke-width="2.3" stroke-linecap="round" stroke-linejoin="round" aria-label="Sweet Chestnut"><path d="M64 116 C63 92 64 64 64 46"/><circle cx="64" cy="44" r="15"/><path d="M79.0 44.0 L86.0 44.0"/><path d="M77.9 49.7 L84.3 52.4"/><path d="M74.6 54.6 L79.6 59.6"/><path d="M69.7 57.9 L72.4 64.3"/><path d="M64.0 59.0 L64.0 66.0"/><path d="M58.3 57.9 L55.6 64.3"/><path d="M53.4 54.6 L48.4 59.6"/><path d="M50.1 49.7 L43.7 52.4"/><path d="M49.0 44.0 L42.0 44.0"/><path d="M50.1 38.3 L43.7 35.6"/><path d="M53.4 33.4 L48.4 28.4"/><path d="M58.3 30.1 L55.6 23.7"/><path d="M64.0 29.0 L64.0 22.0"/><path d="M69.7 30.1 L72.4 23.7"/><path d="M74.6 33.4 L79.6 28.4"/><path d="M77.9 38.3 L84.3 35.6"/></svg>
