<svg xmlns="http://www.w3.org/2000/svg" viewBox="0 0 128 128" fill="none" stroke="#D8B978" stroke-width="2.3" stroke-linecap="round" stroke-linejoin="round" aria-label="Wild Rose"><g><path d="M64.0 60.2C53.0 52.8 47.4 38.1 51.1 25.2C53.9 16.9 61.2 14.2 64.0 19.7C66.8 14.2 74.1 16.9 76.9 25.2C80.6 38.1 75.0 52.8 64.0 60.2Z"/><path d="M65.7 61.4C69.3 48.7 81.6 38.9 95.0 38.4C103.7 38.4 108.6 44.6 104.2 48.9C110.4 49.8 110.0 57.7 103.0 62.9C91.9 70.4 76.2 69.7 65.7 61.4Z"/><path d="M65.1 63.5C78.3 63.0 91.5 71.6 96.1 84.2C98.7 92.5 94.4 99.1 88.9 96.2C89.9 102.3 82.3 104.4 75.2 99.3C64.7 91.1 60.5 75.9 65.1 63.5Z"/><path d="M62.9 63.5C67.5 75.9 63.3 91.1 52.8 99.3C45.7 104.4 38.1 102.3 39.1 96.2C33.6 99.1 29.3 92.5 31.9 84.2C36.5 71.6 49.7 63.0 62.9 63.5Z"/><path d="M62.3 61.4C51.8 69.7 36.1 70.4 25.0 62.9C18.0 57.7 17.6 49.8 23.8 48.9C19.4 44.6 24.3 38.4 33.0 38.4C46.4 38.9 58.7 48.7 62.3 61.4Z"/></g><circle cx="64" cy="62" r="6"/><g fill="#D8B978" stroke="none"><circle cx="64.0" cy="49.5" r="1.7"/><circle cx="73.8" cy="54.2" r="1.7"/><circle cx="76.2" cy="64.8" r="1.7"/><circle cx="69.4" cy="73.3" r="1.7"/><circle cx="58.6" cy="73.3" r="1.7"/><circle cx="51.8" cy="64.8" r="1.7"/><circle cx="54.2" cy="54.2" r="1.7"/></g></svg>
